<svg xmlns="http://www.w3.org/2000/svg" xmlns:xlink="http://www.w3.org/1999/xlink" width="458" zoomAndPan="magnify" viewBox="0 0 343.5 105.749996" height="141" preserveAspectRatio="xMidYMid meet" version="1.0"><defs><g/><clipPath id="10b4bd6f4f"><path d="M 219 1 L 249 1 L 249 25 L 219 25 Z M 219 1 " clip-rule="nonzero"/></clipPath><clipPath id="20fa759ddb"><path d="M 220.210938 0 L 249.238281 2.992188 L 247.011719 24.574219 L 217.984375 21.585938 Z M 220.210938 0 " clip-rule="nonzero"/></clipPath><clipPath id="b5f44b7618"><path d="M 220.210938 0 L 249.238281 2.992188 L 247.011719 24.574219 L 217.984375 21.585938 Z M 220.210938 0 " clip-rule="nonzero"/></clipPath></defs><g clip-path="url(#10b4bd6f4f)"><g clip-path="url(#20fa759ddb)"><g clip-path="url(#b5f44b7618)"><path fill="#ffa500" d="M 222.691406 21.988281 C 223.195312 21.941406 224.203125 21.832031 225.21875 21.773438 C 226.230469 21.710938 227.257812 21.691406 228.289062 21.722656 C 229.324219 21.75 230.371094 21.820312 231.152344 21.90625 C 231.933594 21.992188 232.449219 22.058594 232.949219 22.132812 C 233.449219 22.210938 233.933594 22.292969 234.402344 22.378906 C 234.871094 22.46875 235.324219 22.5625 235.875 22.679688 C 236.425781 22.800781 237.089844 22.957031 237.769531 23.125 C 238.449219 23.292969 239.148438 23.476562 239.871094 23.679688 C 240.589844 23.882812 241.328125 24.101562 241.898438 24.261719 C 242.472656 24.421875 242.730469 24.472656 242.96875 24.507812 C 243.207031 24.542969 243.449219 24.5625 243.789062 24.527344 C 244.132812 24.492188 244.828125 24.121094 245.128906 22.90625 C 245.425781 21.6875 245.53125 20.464844 245.800781 19.003906 C 246.066406 17.542969 246.46875 15.84375 247.023438 13.910156 C 247.578125 11.976562 248.292969 9.816406 248.449219 7.828125 C 248.605469 5.839844 247.585938 5.625 247.246094 5.777344 C 246.902344 5.929688 246.746094 6.0625 246.605469 6.199219 C 246.464844 6.339844 246.320312 6.496094 246.101562 6.753906 C 245.878906 7.007812 245.484375 7.472656 244.953125 8.101562 C 244.417969 8.734375 243.742188 9.535156 242.929688 10.511719 C 242.117188 11.488281 241.15625 12.628906 240.59375 13.296875 C 240.035156 13.964844 239.980469 14.023438 239.964844 14.039062 C 239.949219 14.058594 239.984375 14.039062 240.101562 14.015625 C 240.21875 13.996094 240.417969 13.953125 240.484375 13.96875 C 240.546875 13.988281 240.527344 13.96875 240.433594 13.855469 C 240.335938 13.746094 240.195312 13.546875 240.023438 13.265625 C 239.851562 12.988281 239.65625 12.628906 239.488281 12.292969 C 239.320312 11.957031 239.125 11.503906 238.820312 10.761719 C 238.515625 10.019531 238.117188 8.992188 237.625 7.6875 C 237.128906 6.382812 236.539062 4.796875 236.171875 3.8125 C 235.800781 2.824219 235.714844 2.644531 235.609375 2.46875 C 235.503906 2.289062 235.363281 2.101562 235.144531 1.910156 C 234.925781 1.71875 234.59375 1.546875 234.289062 1.484375 C 233.984375 1.417969 233.351562 1.519531 232.996094 1.757812 C 232.636719 1.996094 232.449219 2.222656 232.316406 2.429688 C 232.1875 2.636719 232.078125 2.847656 231.128906 5.179688 C 230.175781 7.507812 228.503906 11.949219 228.445312 12.09375 C 228.386719 12.242188 228.332031 12.363281 228.292969 12.441406 C 228.253906 12.519531 228.242188 12.546875 228.285156 12.496094 C 228.328125 12.445312 229.738281 12.011719 229.703125 11.964844 C 229.671875 11.917969 229.148438 11.542969 228.347656 10.886719 C 227.542969 10.226562 226.480469 9.304688 225.175781 8.125 C 223.867188 6.945312 222.304688 5.511719 222.121094 5.371094 C 221.933594 5.230469 221.726562 5.121094 221.433594 5.046875 C 221.136719 4.96875 220.746094 4.996094 220.382812 5.179688 C 220.023438 5.363281 219.550781 6.367188 219.652344 7.296875 C 219.75 8.230469 219.984375 9.347656 220.339844 10.667969 C 220.695312 11.992188 221.175781 13.527344 221.660156 14.761719 C 222.144531 15.996094 223.664062 15.558594 223.421875 14.714844 C 223.421875 14.714844 223.171875 12.972656 222.871094 11.527344 C 222.574219 10.085938 222.375 8.894531 222.285156 7.972656 C 222.199219 7.050781 222.207031 6.410156 221.882812 6.957031 C 221.558594 7.507812 221.253906 7.613281 220.992188 7.605469 C 220.734375 7.597656 220.589844 7.546875 220.527344 7.515625 C 220.46875 7.484375 220.414062 7.4375 221.800781 8.898438 C 223.1875 10.359375 224.371094 11.554688 225.351562 12.488281 C 226.328125 13.421875 227.113281 14.101562 227.765625 14.5625 C 228.421875 15.023438 229.199219 15.289062 230.046875 14.921875 C 230.894531 14.554688 231.03125 14.367188 231.140625 14.183594 C 231.25 14 231.34375 13.808594 231.441406 13.601562 C 231.535156 13.394531 231.640625 13.140625 233.269531 8.679688 C 234.898438 4.222656 234.925781 4.144531 234.949219 4.085938 C 234.972656 4.027344 234.960938 4.039062 234.851562 4.144531 C 234.742188 4.246094 234.417969 4.414062 234.023438 4.441406 C 233.628906 4.464844 233.503906 4.421875 233.320312 4.308594 C 233.136719 4.195312 233.0625 4.117188 233.042969 4.085938 C 233.027344 4.058594 233.042969 4.078125 233.070312 4.125 C 233.097656 4.175781 233.875 5.894531 234.535156 7.351562 C 235.195312 8.808594 235.742188 9.996094 236.171875 10.921875 C 236.601562 11.847656 236.917969 12.515625 237.136719 12.925781 C 237.351562 13.339844 237.605469 13.777344 237.847656 14.167969 C 238.09375 14.554688 238.332031 14.890625 238.574219 15.171875 C 238.816406 15.457031 239.082031 15.695312 239.371094 15.871094 C 239.664062 16.046875 239.949219 16.136719 240.269531 16.101562 C 240.59375 16.066406 240.847656 15.980469 241.050781 15.863281 C 241.25 15.746094 241.417969 15.609375 241.570312 15.457031 C 241.722656 15.308594 242.832031 14.101562 243.792969 13.058594 C 244.753906 12.019531 245.566406 11.148438 246.226562 10.445312 C 246.890625 9.738281 247.402344 9.203125 247.765625 8.835938 C 248.125 8.46875 248.265625 8.324219 248.363281 8.234375 C 248.457031 8.148438 248.507812 8.109375 248.457031 8.140625 C 248.40625 8.175781 248.042969 8.300781 247.320312 7.402344 C 246.59375 6.503906 245.597656 8.78125 244.769531 10.898438 C 243.941406 13.015625 243.304688 14.953125 242.867188 16.714844 C 242.429688 18.476562 242.1875 20.066406 242.132812 21.4375 C 242.078125 22.808594 242.636719 21.601562 243.0625 21.417969 C 243.492188 21.230469 243.5625 21.230469 243.5 21.226562 C 243.4375 21.222656 243.292969 21.203125 243.125 21.175781 C 242.957031 21.144531 242.199219 20.953125 241.425781 20.765625 C 240.652344 20.578125 239.894531 20.410156 239.15625 20.257812 C 238.417969 20.105469 237.699219 19.976562 237 19.863281 C 236.300781 19.753906 235.820312 19.683594 235.320312 19.625 C 234.824219 19.5625 234.3125 19.507812 233.785156 19.464844 C 233.261719 19.417969 232.722656 19.378906 232.160156 19.347656 C 231.601562 19.316406 230.476562 19.296875 229.363281 19.328125 C 228.25 19.355469 227.152344 19.433594 226.074219 19.5625 C 224.992188 19.691406 223.929688 19.871094 223.402344 20 C 222.363281 20.222656 223.203125 21.894531 222.691406 21.988281 Z M 222.691406 21.988281 " fill-opacity="1" fill-rule="nonzero"/></g></g></g><g fill="#7f5405" fill-opacity="0.4"><g transform="translate(62.731153, 65.383239)"><g><path d="M 42.921875 -13.234375 C 43.179688 -13.617188 43.519531 -13.753906 43.9375 -13.640625 C 44.351562 -13.523438 44.695312 -13.304688 44.96875 -12.984375 C 45.25 -12.660156 45.289062 -12.335938 45.09375 -12.015625 C 44.769531 -11.472656 44.375 -10.71875 43.90625 -9.75 C 43.445312 -8.78125 42.878906 -7.738281 42.203125 -6.625 C 41.523438 -5.519531 40.734375 -4.460938 39.828125 -3.453125 C 38.929688 -2.441406 37.898438 -1.613281 36.734375 -0.96875 C 35.578125 -0.320312 34.289062 0 32.875 0 C 31.175781 0 29.8125 -0.5 28.78125 -1.5 C 27.75 -2.5 27.234375 -3.929688 27.234375 -5.796875 C 27.234375 -6.859375 27.304688 -7.992188 27.453125 -9.203125 C 27.597656 -10.410156 27.910156 -11.738281 28.390625 -13.1875 L 28.4375 -13.375 C 28.726562 -14.3125 28.769531 -14.9375 28.5625 -15.25 C 28.351562 -15.570312 27.945312 -15.734375 27.34375 -15.734375 C 26.75 -15.734375 26.035156 -15.734375 25.203125 -15.734375 C 24.847656 -15.734375 24.5 -15.6875 24.15625 -15.59375 C 23.820312 -15.5 23.476562 -15.128906 23.125 -14.484375 C 23.0625 -14.359375 23 -14.222656 22.9375 -14.078125 C 22.875 -13.929688 22.804688 -13.789062 22.734375 -13.65625 C 22.453125 -12.988281 22.1875 -12.378906 21.9375 -11.828125 C 21.695312 -11.285156 21.5 -10.835938 21.34375 -10.484375 C 19.570312 -6.679688 17.421875 -3.644531 14.890625 -1.375 C 12.367188 0.894531 9.382812 2.03125 5.9375 2.03125 C 4.070312 2.03125 2.519531 1.632812 1.28125 0.84375 C 0.0390625 0.0507812 -0.878906 -0.96875 -1.484375 -2.21875 C -2.097656 -3.476562 -2.40625 -4.765625 -2.40625 -6.078125 C -2.40625 -7.398438 -2.140625 -8.664062 -1.609375 -9.875 C -1.085938 -11.082031 -0.34375 -12.0625 0.625 -12.8125 C 1.59375 -13.570312 2.71875 -13.953125 4 -13.953125 C 4.488281 -13.953125 4.734375 -13.757812 4.734375 -13.375 C 4.734375 -12.3125 5.191406 -11.445312 6.109375 -10.78125 C 7.023438 -10.125 8.144531 -9.796875 9.46875 -9.796875 C 10.59375 -9.796875 11.75 -10.078125 12.9375 -10.640625 C 14.125 -11.203125 15.25 -12.09375 16.3125 -13.3125 C 17.375 -14.539062 18.273438 -16.125 19.015625 -18.0625 C 19.597656 -19.570312 20.242188 -21.171875 20.953125 -22.859375 C 21.660156 -24.546875 22.382812 -26.328125 23.125 -28.203125 C 21.613281 -28.617188 20.207031 -28.609375 18.90625 -28.171875 C 17.601562 -27.734375 16.554688 -26.988281 15.765625 -25.9375 C 14.972656 -24.894531 14.578125 -23.6875 14.578125 -22.3125 C 14.578125 -21.632812 14.753906 -21.0625 15.109375 -20.59375 C 15.460938 -20.125 15.898438 -19.890625 16.421875 -19.890625 C 16.640625 -19.378906 16.648438 -18.757812 16.453125 -18.03125 C 16.265625 -17.3125 15.890625 -16.617188 15.328125 -15.953125 C 14.765625 -15.296875 14.039062 -14.738281 13.15625 -14.28125 C 12.269531 -13.832031 11.25 -13.609375 10.09375 -13.609375 C 8.769531 -13.609375 7.65625 -13.9375 6.75 -14.59375 C 5.851562 -15.257812 5.179688 -16.140625 4.734375 -17.234375 C 4.285156 -18.328125 4.0625 -19.488281 4.0625 -20.71875 C 4.0625 -22.769531 4.492188 -24.710938 5.359375 -26.546875 C 6.222656 -28.390625 7.457031 -30.007812 9.0625 -31.40625 C 10.675781 -32.800781 12.570312 -33.898438 14.75 -34.703125 C 16.925781 -35.515625 19.316406 -35.921875 21.921875 -35.921875 C 25.171875 -35.921875 27.285156 -35.203125 28.265625 -33.765625 C 29.242188 -32.335938 29.269531 -30.414062 28.34375 -28 C 27.664062 -25.875 26.875 -23.6875 25.96875 -21.4375 C 25.96875 -21.40625 25.953125 -21.375 25.921875 -21.34375 C 25.566406 -20.40625 25.535156 -19.804688 25.828125 -19.546875 C 26.117188 -19.296875 26.472656 -19.171875 26.890625 -19.171875 C 27.148438 -19.171875 27.503906 -19.175781 27.953125 -19.1875 C 28.398438 -19.207031 28.851562 -19.234375 29.3125 -19.265625 C 29.945312 -19.328125 30.367188 -19.554688 30.578125 -19.953125 C 30.796875 -20.359375 31.0625 -20.984375 31.375 -21.828125 C 32.476562 -24.941406 33.535156 -27.585938 34.546875 -29.765625 C 35.554688 -31.941406 36.65625 -33.59375 37.84375 -34.71875 C 39.039062 -35.84375 40.410156 -36.40625 41.953125 -36.40625 C 43.179688 -36.40625 44.171875 -36.023438 44.921875 -35.265625 C 45.679688 -34.515625 46.0625 -33.285156 46.0625 -31.578125 C 46.0625 -29.835938 45.632812 -28.023438 44.78125 -26.140625 C 43.925781 -24.253906 42.742188 -22.523438 41.234375 -20.953125 C 39.722656 -19.378906 37.96875 -18.1875 35.96875 -17.375 C 35.03125 -16.988281 34.5625 -16.15625 34.5625 -14.875 C 34.5625 -13.75 34.890625 -12.78125 35.546875 -11.96875 C 36.210938 -11.164062 37.125 -10.765625 38.28125 -10.765625 C 39.15625 -10.765625 40.019531 -10.972656 40.875 -11.390625 C 41.726562 -11.804688 42.410156 -12.421875 42.921875 -13.234375 Z M 36.546875 -24 C 36.160156 -22.769531 35.984375 -21.992188 36.015625 -21.671875 C 36.046875 -21.359375 36.175781 -21.203125 36.40625 -21.203125 C 36.882812 -21.203125 37.421875 -21.488281 38.015625 -22.0625 C 38.617188 -22.644531 39.128906 -23.328125 39.546875 -24.109375 C 39.960938 -24.898438 40.171875 -25.585938 40.171875 -26.171875 C 40.171875 -26.972656 39.832031 -27.375 39.15625 -27.375 C 38.476562 -27.375 37.945312 -27.023438 37.5625 -26.328125 C 37.175781 -25.640625 36.835938 -24.863281 36.546875 -24 Z M 36.546875 -24 "/></g></g></g><g fill="#7f5405" fill-opacity="0.4"><g transform="translate(104.535196, 65.383239)"><g><path d="M 5.125 0 C 3.476562 0 2.234375 -0.675781 1.390625 -2.03125 C 0.554688 -3.382812 0.140625 -5.140625 0.140625 -7.296875 C 0.140625 -8.640625 0.304688 -10.078125 0.640625 -11.609375 C 0.984375 -13.140625 1.484375 -14.644531 2.140625 -16.125 C 2.804688 -17.601562 3.632812 -18.945312 4.625 -20.15625 C 5.625 -21.363281 6.785156 -22.328125 8.109375 -23.046875 C 9.429688 -23.773438 10.925781 -24.140625 12.59375 -24.140625 C 13.5625 -24.140625 14.3125 -24.050781 14.84375 -23.875 C 15.375 -23.695312 15.773438 -23.476562 16.046875 -23.21875 C 16.328125 -22.96875 16.5625 -22.753906 16.75 -22.578125 C 16.945312 -22.398438 17.207031 -22.3125 17.53125 -22.3125 C 18.070312 -22.3125 18.507812 -22.460938 18.84375 -22.765625 C 19.1875 -23.066406 19.566406 -23.367188 19.984375 -23.671875 C 20.398438 -23.984375 20.976562 -24.140625 21.71875 -24.140625 C 22.363281 -24.140625 22.804688 -23.976562 23.046875 -23.65625 C 23.296875 -23.332031 23.421875 -22.898438 23.421875 -22.359375 C 23.421875 -21.453125 23.171875 -20.554688 22.671875 -19.671875 C 22.171875 -18.785156 21.644531 -17.632812 21.09375 -16.21875 C 20.289062 -14.445312 19.992188 -13.09375 20.203125 -12.15625 C 20.410156 -11.226562 21.046875 -10.765625 22.109375 -10.765625 C 22.953125 -10.765625 23.675781 -10.976562 24.28125 -11.40625 C 24.894531 -11.84375 25.441406 -12.453125 25.921875 -13.234375 C 26.179688 -13.617188 26.507812 -13.753906 26.90625 -13.640625 C 27.3125 -13.523438 27.648438 -13.304688 27.921875 -12.984375 C 28.203125 -12.660156 28.257812 -12.335938 28.09375 -12.015625 C 27.519531 -10.890625 26.898438 -9.644531 26.234375 -8.28125 C 25.578125 -6.914062 24.847656 -5.601562 24.046875 -4.34375 C 23.242188 -3.09375 22.328125 -2.054688 21.296875 -1.234375 C 20.265625 -0.410156 19.070312 0 17.71875 0 C 16.039062 0 14.851562 -0.675781 14.15625 -2.03125 C 13.46875 -3.382812 13.269531 -5.054688 13.5625 -7.046875 L 13.375 -7.046875 C 12.40625 -5.085938 11.210938 -3.421875 9.796875 -2.046875 C 8.378906 -0.679688 6.820312 0 5.125 0 Z M 9.953125 -10 C 10.785156 -10 11.515625 -10.238281 12.140625 -10.71875 C 12.765625 -11.195312 13.253906 -11.78125 13.609375 -12.46875 C 13.960938 -13.164062 14.140625 -13.851562 14.140625 -14.53125 C 14.140625 -15.332031 13.914062 -15.957031 13.46875 -16.40625 C 13.019531 -16.863281 12.410156 -17.09375 11.640625 -17.09375 C 10.796875 -17.09375 10.066406 -16.863281 9.453125 -16.40625 C 8.847656 -15.957031 8.375 -15.382812 8.03125 -14.6875 C 7.695312 -14 7.53125 -13.300781 7.53125 -12.59375 C 7.53125 -11.789062 7.742188 -11.15625 8.171875 -10.6875 C 8.609375 -10.226562 9.203125 -10 9.953125 -10 Z M 9.953125 -10 "/></g></g></g><g fill="#7f5405" fill-opacity="0.4"><g transform="translate(129.347295, 65.383239)"><g><path d="M 24.671875 -13.234375 C 24.867188 -13.515625 25.175781 -13.613281 25.59375 -13.53125 C 26.007812 -13.457031 26.367188 -13.28125 26.671875 -13 C 26.984375 -12.726562 27.039062 -12.398438 26.84375 -12.015625 C 26.394531 -11.054688 25.804688 -10.0625 25.078125 -9.03125 C 24.359375 -8 23.457031 -7.132812 22.375 -6.4375 C 21.300781 -5.75 19.972656 -5.40625 18.390625 -5.40625 L 18.109375 -5.40625 C 16.984375 -3.757812 15.671875 -2.445312 14.171875 -1.46875 C 12.671875 -0.488281 11.148438 0 9.609375 0 C 8.222656 0 7.085938 -0.414062 6.203125 -1.25 C 5.316406 -2.09375 5.035156 -3.476562 5.359375 -5.40625 C 5.453125 -5.957031 5.28125 -6.25 4.84375 -6.28125 C 4.414062 -6.3125 4.132812 -6.019531 4 -5.40625 C 3.644531 -3.632812 3.28125 -1.863281 2.90625 -0.09375 C 2.539062 1.675781 2.125 3.300781 1.65625 4.78125 C 1.195312 6.257812 0.660156 7.441406 0.046875 8.328125 C -0.566406 9.210938 -1.304688 9.65625 -2.171875 9.65625 C -3.359375 9.65625 -4.21875 9.363281 -4.75 8.78125 C -5.28125 8.207031 -5.546875 7.390625 -5.546875 6.328125 C -5.546875 4.847656 -5.070312 2.914062 -4.125 0.53125 C -3.175781 -1.851562 -2.09375 -4.617188 -0.875 -7.765625 C -0.550781 -8.609375 -0.222656 -9.488281 0.109375 -10.40625 C 0.453125 -11.320312 0.785156 -12.265625 1.109375 -13.234375 C 1.878906 -15.546875 2.519531 -17.414062 3.03125 -18.84375 C 3.550781 -20.28125 4.007812 -21.375 4.40625 -22.125 C 4.8125 -22.882812 5.222656 -23.410156 5.640625 -23.703125 C 6.066406 -23.992188 6.582031 -24.140625 7.1875 -24.140625 C 8.03125 -24.140625 8.578125 -23.976562 8.828125 -23.65625 C 9.085938 -23.332031 9.1875 -22.945312 9.125 -22.5 C 9.0625 -22.144531 9.207031 -21.910156 9.5625 -21.796875 C 9.914062 -21.679688 10.285156 -21.816406 10.671875 -22.203125 C 11.503906 -23.046875 12.316406 -23.578125 13.109375 -23.796875 C 13.898438 -24.023438 14.664062 -24.140625 15.40625 -24.140625 C 17.300781 -24.140625 18.828125 -23.488281 19.984375 -22.1875 C 21.140625 -20.882812 21.71875 -19.085938 21.71875 -16.796875 C 21.71875 -15.765625 21.640625 -14.75 21.484375 -13.75 C 21.328125 -12.757812 21.101562 -11.796875 20.8125 -10.859375 C 21.519531 -10.859375 22.191406 -11.039062 22.828125 -11.40625 C 23.472656 -11.78125 24.085938 -12.390625 24.671875 -13.234375 Z M 10.53125 -10 C 11.332031 -10 12.035156 -10.238281 12.640625 -10.71875 C 13.253906 -11.195312 13.738281 -11.78125 14.09375 -12.46875 C 14.445312 -13.164062 14.625 -13.851562 14.625 -14.53125 C 14.625 -15.238281 14.414062 -15.84375 14 -16.34375 C 13.582031 -16.84375 12.90625 -17.09375 11.96875 -17.09375 C 11.195312 -17.09375 10.515625 -16.863281 9.921875 -16.40625 C 9.328125 -15.957031 8.859375 -15.382812 8.515625 -14.6875 C 8.179688 -14 8.015625 -13.300781 8.015625 -12.59375 C 8.015625 -11.894531 8.207031 -11.285156 8.59375 -10.765625 C 8.976562 -10.253906 9.625 -10 10.53125 -10 Z M 10.53125 -10 "/></g></g></g><g fill="#7f5405" fill-opacity="0.4"><g transform="translate(152.904311, 65.383239)"><g><path d="M 24.671875 -13.234375 C 24.867188 -13.515625 25.175781 -13.613281 25.59375 -13.53125 C 26.007812 -13.457031 26.367188 -13.28125 26.671875 -13 C 26.984375 -12.726562 27.039062 -12.398438 26.84375 -12.015625 C 26.394531 -11.054688 25.804688 -10.0625 25.078125 -9.03125 C 24.359375 -8 23.457031 -7.132812 22.375 -6.4375 C 21.300781 -5.75 19.972656 -5.40625 18.390625 -5.40625 L 18.109375 -5.40625 C 16.984375 -3.757812 15.671875 -2.445312 14.171875 -1.46875 C 12.671875 -0.488281 11.148438 0 9.609375 0 C 8.222656 0 7.085938 -0.414062 6.203125 -1.25 C 5.316406 -2.09375 5.035156 -3.476562 5.359375 -5.40625 C 5.453125 -5.957031 5.28125 -6.25 4.84375 -6.28125 C 4.414062 -6.3125 4.132812 -6.019531 4 -5.40625 C 3.644531 -3.632812 3.28125 -1.863281 2.90625 -0.09375 C 2.539062 1.675781 2.125 3.300781 1.65625 4.78125 C 1.195312 6.257812 0.660156 7.441406 0.046875 8.328125 C -0.566406 9.210938 -1.304688 9.65625 -2.171875 9.65625 C -3.359375 9.65625 -4.21875 9.363281 -4.75 8.78125 C -5.28125 8.207031 -5.546875 7.390625 -5.546875 6.328125 C -5.546875 4.847656 -5.070312 2.914062 -4.125 0.53125 C -3.175781 -1.851562 -2.09375 -4.617188 -0.875 -7.765625 C -0.550781 -8.609375 -0.222656 -9.488281 0.109375 -10.40625 C 0.453125 -11.320312 0.785156 -12.265625 1.109375 -13.234375 C 1.878906 -15.546875 2.519531 -17.414062 3.03125 -18.84375 C 3.550781 -20.28125 4.007812 -21.375 4.40625 -22.125 C 4.8125 -22.882812 5.222656 -23.410156 5.640625 -23.703125 C 6.066406 -23.992188 6.582031 -24.140625 7.1875 -24.140625 C 8.03125 -24.140625 8.578125 -23.976562 8.828125 -23.65625 C 9.085938 -23.332031 9.1875 -22.945312 9.125 -22.5 C 9.0625 -22.144531 9.207031 -21.910156 9.5625 -21.796875 C 9.914062 -21.679688 10.285156 -21.816406 10.671875 -22.203125 C 11.503906 -23.046875 12.316406 -23.578125 13.109375 -23.796875 C 13.898438 -24.023438 14.664062 -24.140625 15.40625 -24.140625 C 17.300781 -24.140625 18.828125 -23.488281 19.984375 -22.1875 C 21.140625 -20.882812 21.71875 -19.085938 21.71875 -16.796875 C 21.71875 -15.765625 21.640625 -14.75 21.484375 -13.75 C 21.328125 -12.757812 21.101562 -11.796875 20.8125 -10.859375 C 21.519531 -10.859375 22.191406 -11.039062 22.828125 -11.40625 C 23.472656 -11.78125 24.085938 -12.390625 24.671875 -13.234375 Z M 10.53125 -10 C 11.332031 -10 12.035156 -10.238281 12.640625 -10.71875 C 13.253906 -11.195312 13.738281 -11.78125 14.09375 -12.46875 C 14.445312 -13.164062 14.625 -13.851562 14.625 -14.53125 C 14.625 -15.238281 14.414062 -15.84375 14 -16.34375 C 13.582031 -16.84375 12.90625 -17.09375 11.96875 -17.09375 C 11.195312 -17.09375 10.515625 -16.863281 9.921875 -16.40625 C 9.328125 -15.957031 8.859375 -15.382812 8.515625 -14.6875 C 8.179688 -14 8.015625 -13.300781 8.015625 -12.59375 C 8.015625 -11.894531 8.207031 -11.285156 8.59375 -10.765625 C 8.976562 -10.253906 9.625 -10 10.53125 -10 Z M 10.53125 -10 "/></g></g></g><g fill="#7f5405" fill-opacity="0.4"><g transform="translate(176.461328, 65.383239)"><g><path d="M 9.078125 0 C 7.148438 0 5.566406 -0.429688 4.328125 -1.296875 C 3.085938 -2.171875 2.164062 -3.320312 1.5625 -4.75 C 0.96875 -6.1875 0.675781 -7.765625 0.6875 -9.484375 C 0.707031 -11.203125 1.007812 -12.921875 1.59375 -14.640625 C 2.175781 -16.367188 3.015625 -17.945312 4.109375 -19.375 C 5.203125 -20.8125 6.523438 -21.960938 8.078125 -22.828125 C 9.640625 -23.703125 11.40625 -24.140625 13.375 -24.140625 C 14.882812 -24.140625 16.113281 -23.859375 17.0625 -23.296875 C 18.007812 -22.734375 18.707031 -21.984375 19.15625 -21.046875 C 19.613281 -20.117188 19.84375 -19.125 19.84375 -18.0625 C 19.84375 -16.894531 19.519531 -15.734375 18.875 -14.578125 C 18.226562 -13.421875 17.328125 -12.460938 16.171875 -11.703125 C 15.015625 -10.953125 13.644531 -10.578125 12.0625 -10.578125 C 11.394531 -10.578125 10.738281 -10.625 10.09375 -10.71875 C 9.445312 -10.8125 8.847656 -11.019531 8.296875 -11.34375 C 8.140625 -11.4375 7.960938 -11.441406 7.765625 -11.359375 C 7.578125 -11.285156 7.484375 -11.085938 7.484375 -10.765625 C 7.484375 -9.929688 7.972656 -9.296875 8.953125 -8.859375 C 9.929688 -8.421875 11.113281 -8.203125 12.5 -8.203125 C 14.144531 -8.203125 15.84375 -8.617188 17.59375 -9.453125 C 19.351562 -10.296875 20.78125 -11.554688 21.875 -13.234375 C 22.125 -13.617188 22.457031 -13.753906 22.875 -13.640625 C 23.300781 -13.523438 23.648438 -13.304688 23.921875 -12.984375 C 24.191406 -12.660156 24.234375 -12.335938 24.046875 -12.015625 C 21.921875 -8.085938 19.59375 -5.101562 17.0625 -3.0625 C 14.539062 -1.019531 11.878906 0 9.078125 0 Z M 10.8125 -14.1875 C 11.75 -14.1875 12.484375 -14.484375 13.015625 -15.078125 C 13.546875 -15.679688 13.8125 -16.285156 13.8125 -16.890625 C 13.8125 -17.441406 13.625 -17.910156 13.25 -18.296875 C 12.882812 -18.679688 12.332031 -18.875 11.59375 -18.875 C 10.65625 -18.875 9.910156 -18.582031 9.359375 -18 C 8.816406 -17.425781 8.546875 -16.816406 8.546875 -16.171875 C 8.546875 -15.660156 8.726562 -15.203125 9.09375 -14.796875 C 9.46875 -14.390625 10.039062 -14.1875 10.8125 -14.1875 Z M 10.8125 -14.1875 "/></g></g></g><g fill="#7f5405" fill-opacity="0.4"><g transform="translate(197.218529, 65.383239)"><g><path d="M 3.046875 0 C 1.921875 0 1.050781 -0.335938 0.4375 -1.015625 C -0.175781 -1.691406 -0.484375 -2.53125 -0.484375 -3.53125 C -0.484375 -4.65625 -0.351562 -6.0625 -0.09375 -7.75 C 0.164062 -9.4375 0.566406 -11.265625 1.109375 -13.234375 C 1.660156 -15.128906 2.265625 -16.90625 2.921875 -18.5625 C 3.578125 -20.21875 4.25 -21.5625 4.9375 -22.59375 C 5.632812 -23.625 6.289062 -24.140625 6.90625 -24.140625 C 7.550781 -24.140625 7.976562 -23.953125 8.1875 -23.578125 C 8.394531 -23.210938 8.5 -22.789062 8.5 -22.3125 C 8.5 -21.375 8.722656 -20.789062 9.171875 -20.5625 C 9.617188 -20.34375 10.234375 -20.617188 11.015625 -21.390625 C 11.910156 -22.253906 12.835938 -22.925781 13.796875 -23.40625 C 14.765625 -23.894531 15.78125 -24.140625 16.84375 -24.140625 C 18.332031 -24.140625 19.429688 -23.703125 20.140625 -22.828125 C 20.847656 -21.960938 21.203125 -20.921875 21.203125 -19.703125 C 21.203125 -18.859375 21.070312 -18.09375 20.8125 -17.40625 C 20.550781 -16.71875 20.289062 -16.039062 20.03125 -15.375 C 19.78125 -14.71875 19.65625 -13.988281 19.65625 -13.1875 C 19.65625 -11.570312 20.425781 -10.765625 21.96875 -10.765625 C 22.707031 -10.765625 23.328125 -11 23.828125 -11.46875 C 24.328125 -11.9375 24.816406 -12.523438 25.296875 -13.234375 C 25.554688 -13.617188 25.894531 -13.753906 26.3125 -13.640625 C 26.726562 -13.523438 27.070312 -13.304688 27.34375 -12.984375 C 27.625 -12.660156 27.664062 -12.335938 27.46875 -12.015625 C 27.144531 -11.503906 26.757812 -10.753906 26.3125 -9.765625 C 25.863281 -8.785156 25.320312 -7.738281 24.6875 -6.625 C 24.0625 -5.519531 23.332031 -4.460938 22.5 -3.453125 C 21.664062 -2.441406 20.722656 -1.613281 19.671875 -0.96875 C 18.628906 -0.320312 17.445312 0 16.125 0 C 14.613281 0 13.550781 -0.5 12.9375 -1.5 C 12.320312 -2.5 12.015625 -3.671875 12.015625 -5.015625 C 12.015625 -6.242188 12.179688 -7.410156 12.515625 -8.515625 C 12.859375 -9.628906 13.195312 -10.644531 13.53125 -11.5625 C 13.875 -12.476562 14.046875 -13.257812 14.046875 -13.90625 C 14.046875 -14.445312 13.875 -14.863281 13.53125 -15.15625 C 13.195312 -15.445312 12.757812 -15.59375 12.21875 -15.59375 C 11.28125 -15.59375 10.414062 -15.195312 9.625 -14.40625 C 8.84375 -13.625 8.207031 -12.601562 7.71875 -11.34375 C 7.238281 -10.09375 7 -8.742188 7 -7.296875 L 7 -5.125 C 7 -4.3125 6.898438 -3.507812 6.703125 -2.71875 C 6.515625 -1.9375 6.140625 -1.285156 5.578125 -0.765625 C 5.015625 -0.253906 4.171875 0 3.046875 0 Z M 3.046875 0 "/></g></g></g><g fill="#7f5405" fill-opacity="0.4"><g transform="translate(221.403087, 65.383239)"><g><path d="M 9.703125 -26.125 C 8.546875 -26.125 7.546875 -26.367188 6.703125 -26.859375 C 5.867188 -27.359375 5.453125 -28.253906 5.453125 -29.546875 C 5.453125 -31.253906 5.925781 -32.421875 6.875 -33.046875 C 7.820312 -33.671875 8.957031 -33.984375 10.28125 -33.984375 C 11.507812 -33.984375 12.546875 -33.707031 13.390625 -33.15625 C 14.242188 -32.613281 14.609375 -31.585938 14.484375 -30.078125 C 14.359375 -28.597656 13.84375 -27.566406 12.9375 -26.984375 C 12.039062 -26.410156 10.960938 -26.125 9.703125 -26.125 Z M 4.34375 0 C 2.738281 0 1.597656 -0.585938 0.921875 -1.765625 C 0.242188 -2.941406 -0.09375 -4.363281 -0.09375 -6.03125 C -0.09375 -7.15625 0.015625 -8.34375 0.234375 -9.59375 C 0.460938 -10.851562 0.753906 -12.066406 1.109375 -13.234375 C 2.234375 -16.734375 3.328125 -19.425781 4.390625 -21.3125 C 5.453125 -23.195312 6.675781 -24.140625 8.0625 -24.140625 C 9.15625 -24.140625 9.703125 -23.414062 9.703125 -21.96875 C 9.703125 -21 9.515625 -20.007812 9.140625 -19 C 8.773438 -17.988281 8.414062 -16.988281 8.0625 -16 C 7.707031 -15.019531 7.53125 -14.097656 7.53125 -13.234375 C 7.53125 -12.421875 7.726562 -11.8125 8.125 -11.40625 C 8.53125 -11.007812 9.054688 -10.8125 9.703125 -10.8125 C 10.441406 -10.8125 11.0625 -11.035156 11.5625 -11.484375 C 12.0625 -11.941406 12.550781 -12.523438 13.03125 -13.234375 C 13.289062 -13.617188 13.617188 -13.757812 14.015625 -13.65625 C 14.421875 -13.5625 14.757812 -13.34375 15.03125 -13 C 15.3125 -12.664062 15.367188 -12.351562 15.203125 -12.0625 C 14.878906 -11.550781 14.5 -10.8125 14.0625 -9.84375 C 13.632812 -8.882812 13.113281 -7.835938 12.5 -6.703125 C 11.894531 -5.578125 11.195312 -4.507812 10.40625 -3.5 C 9.613281 -2.488281 8.71875 -1.648438 7.71875 -0.984375 C 6.726562 -0.328125 5.601562 0 4.34375 0 Z M 4.34375 0 "/></g></g></g><g fill="#7f5405" fill-opacity="0.4"><g transform="translate(233.278138, 65.383239)"><g><path d="M 3.046875 0 C 1.921875 0 1.050781 -0.335938 0.4375 -1.015625 C -0.175781 -1.691406 -0.484375 -2.53125 -0.484375 -3.53125 C -0.484375 -4.65625 -0.351562 -6.0625 -0.09375 -7.75 C 0.164062 -9.4375 0.566406 -11.265625 1.109375 -13.234375 C 1.660156 -15.128906 2.265625 -16.90625 2.921875 -18.5625 C 3.578125 -20.21875 4.25 -21.5625 4.9375 -22.59375 C 5.632812 -23.625 6.289062 -24.140625 6.90625 -24.140625 C 7.550781 -24.140625 7.976562 -23.953125 8.1875 -23.578125 C 8.394531 -23.210938 8.5 -22.789062 8.5 -22.3125 C 8.5 -21.375 8.722656 -20.789062 9.171875 -20.5625 C 9.617188 -20.34375 10.234375 -20.617188 11.015625 -21.390625 C 11.910156 -22.253906 12.835938 -22.925781 13.796875 -23.40625 C 14.765625 -23.894531 15.78125 -24.140625 16.84375 -24.140625 C 18.332031 -24.140625 19.429688 -23.703125 20.140625 -22.828125 C 20.847656 -21.960938 21.203125 -20.921875 21.203125 -19.703125 C 21.203125 -18.859375 21.070312 -18.09375 20.8125 -17.40625 C 20.550781 -16.71875 20.289062 -16.039062 20.03125 -15.375 C 19.78125 -14.71875 19.65625 -13.988281 19.65625 -13.1875 C 19.65625 -11.570312 20.425781 -10.765625 21.96875 -10.765625 C 22.707031 -10.765625 23.328125 -11 23.828125 -11.46875 C 24.328125 -11.9375 24.816406 -12.523438 25.296875 -13.234375 C 25.554688 -13.617188 25.894531 -13.753906 26.3125 -13.640625 C 26.726562 -13.523438 27.070312 -13.304688 27.34375 -12.984375 C 27.625 -12.660156 27.664062 -12.335938 27.46875 -12.015625 C 27.144531 -11.503906 26.757812 -10.753906 26.3125 -9.765625 C 25.863281 -8.785156 25.320312 -7.738281 24.6875 -6.625 C 24.0625 -5.519531 23.332031 -4.460938 22.5 -3.453125 C 21.664062 -2.441406 20.722656 -1.613281 19.671875 -0.96875 C 18.628906 -0.320312 17.445312 0 16.125 0 C 14.613281 0 13.550781 -0.5 12.9375 -1.5 C 12.320312 -2.5 12.015625 -3.671875 12.015625 -5.015625 C 12.015625 -6.242188 12.179688 -7.410156 12.515625 -8.515625 C 12.859375 -9.628906 13.195312 -10.644531 13.53125 -11.5625 C 13.875 -12.476562 14.046875 -13.257812 14.046875 -13.90625 C 14.046875 -14.445312 13.875 -14.863281 13.53125 -15.15625 C 13.195312 -15.445312 12.757812 -15.59375 12.21875 -15.59375 C 11.28125 -15.59375 10.414062 -15.195312 9.625 -14.40625 C 8.84375 -13.625 8.207031 -12.601562 7.71875 -11.34375 C 7.238281 -10.09375 7 -8.742188 7 -7.296875 L 7 -5.125 C 7 -4.3125 6.898438 -3.507812 6.703125 -2.71875 C 6.515625 -1.9375 6.140625 -1.285156 5.578125 -0.765625 C 5.015625 -0.253906 4.171875 0 3.046875 0 Z M 3.046875 0 "/></g></g></g><g fill="#7f5405" fill-opacity="0.4"><g transform="translate(257.462695, 65.383239)"><g><path d="M 25.5 -13.234375 C 25.6875 -13.515625 25.988281 -13.613281 26.40625 -13.53125 C 26.820312 -13.457031 27.179688 -13.28125 27.484375 -13 C 27.796875 -12.726562 27.859375 -12.398438 27.671875 -12.015625 C 26.960938 -10.535156 26.273438 -9.085938 25.609375 -7.671875 C 24.953125 -6.253906 24.253906 -4.96875 23.515625 -3.8125 C 22.773438 -2.65625 21.953125 -1.726562 21.046875 -1.03125 C 20.148438 -0.34375 19.117188 0 17.953125 0 C 17.242188 0 16.679688 -0.351562 16.265625 -1.0625 C 15.234375 2.25 14.128906 4.898438 12.953125 6.890625 C 11.785156 8.890625 10.476562 10.335938 9.03125 11.234375 C 7.582031 12.140625 5.941406 12.59375 4.109375 12.59375 C 1.566406 12.59375 -0.398438 11.925781 -1.796875 10.59375 C -3.203125 9.257812 -3.90625 7.4375 -3.90625 5.125 C -3.90625 3.894531 -3.726562 2.835938 -3.375 1.953125 C -3.019531 1.066406 -2.617188 0.367188 -2.171875 -0.140625 C -1.722656 -0.660156 -1.320312 -0.992188 -0.96875 -1.140625 C -0.613281 -1.285156 -0.421875 -1.226562 -0.390625 -0.96875 C -0.253906 0.226562 0.285156 1.195312 1.234375 1.9375 C 2.179688 2.675781 3.457031 3.0625 5.0625 3.09375 C 6.195312 3.09375 7.257812 2.816406 8.25 2.265625 C 9.25 1.722656 10.144531 1.007812 10.9375 0.125 C 11.726562 -0.757812 12.347656 -1.734375 12.796875 -2.796875 C 13.242188 -3.859375 13.46875 -4.921875 13.46875 -5.984375 C 13.46875 -6.398438 13.304688 -6.597656 12.984375 -6.578125 C 12.660156 -6.566406 12.390625 -6.320312 12.171875 -5.84375 C 11.523438 -4.164062 10.582031 -2.84375 9.34375 -1.875 C 8.101562 -0.914062 6.875 -0.4375 5.65625 -0.4375 C 3.976562 -0.4375 2.640625 -1.054688 1.640625 -2.296875 C 0.640625 -3.535156 0.140625 -5.054688 0.140625 -6.859375 C 0.140625 -8.660156 0.394531 -10.554688 0.90625 -12.546875 C 1.425781 -14.546875 2.207031 -16.421875 3.25 -18.171875 C 4.300781 -19.929688 5.609375 -21.363281 7.171875 -22.46875 C 8.734375 -23.582031 10.539062 -24.140625 12.59375 -24.140625 C 13.5625 -24.140625 14.3125 -24.050781 14.84375 -23.875 C 15.375 -23.695312 15.773438 -23.476562 16.046875 -23.21875 C 16.328125 -22.96875 16.5625 -22.753906 16.75 -22.578125 C 16.945312 -22.398438 17.207031 -22.3125 17.53125 -22.3125 C 18.070312 -22.3125 18.507812 -22.460938 18.84375 -22.765625 C 19.1875 -23.066406 19.566406 -23.367188 19.984375 -23.671875 C 20.398438 -23.984375 20.976562 -24.140625 21.71875 -24.140625 C 22.363281 -24.140625 22.804688 -23.976562 23.046875 -23.65625 C 23.296875 -23.332031 23.421875 -22.898438 23.421875 -22.359375 C 23.421875 -21.773438 23.234375 -21.085938 22.859375 -20.296875 C 22.492188 -19.515625 22.007812 -18.503906 21.40625 -17.265625 C 20.8125 -16.023438 20.175781 -14.421875 19.5 -12.453125 C 19.175781 -11.171875 19.175781 -10.28125 19.5 -9.78125 C 19.820312 -9.28125 20.257812 -9.03125 20.8125 -9.03125 C 21.550781 -9.03125 22.335938 -9.476562 23.171875 -10.375 C 24.015625 -11.28125 24.789062 -12.234375 25.5 -13.234375 Z M 10.046875 -10 C 10.847656 -10 11.550781 -10.238281 12.15625 -10.71875 C 12.769531 -11.195312 13.253906 -11.78125 13.609375 -12.46875 C 13.960938 -13.164062 14.140625 -13.851562 14.140625 -14.53125 C 14.140625 -15.238281 13.929688 -15.84375 13.515625 -16.34375 C 13.097656 -16.84375 12.421875 -17.09375 11.484375 -17.09375 C 10.710938 -17.09375 10.03125 -16.863281 9.4375 -16.40625 C 8.84375 -15.957031 8.375 -15.382812 8.03125 -14.6875 C 7.695312 -14 7.53125 -13.300781 7.53125 -12.59375 C 7.53125 -11.894531 7.722656 -11.285156 8.109375 -10.765625 C 8.492188 -10.253906 9.140625 -10 10.046875 -10 Z M 10.046875 -10 "/></g></g></g><g fill="#ffa500" fill-opacity="1"><g transform="translate(60.597178, 63.249265)"><g><path d="M 42.921875 -13.234375 C 43.179688 -13.617188 43.519531 -13.753906 43.9375 -13.640625 C 44.351562 -13.523438 44.695312 -13.304688 44.96875 -12.984375 C 45.25 -12.660156 45.289062 -12.335938 45.09375 -12.015625 C 44.769531 -11.472656 44.375 -10.71875 43.90625 -9.75 C 43.445312 -8.78125 42.878906 -7.738281 42.203125 -6.625 C 41.523438 -5.519531 40.734375 -4.460938 39.828125 -3.453125 C 38.929688 -2.441406 37.898438 -1.613281 36.734375 -0.96875 C 35.578125 -0.320312 34.289062 0 32.875 0 C 31.175781 0 29.8125 -0.5 28.78125 -1.5 C 27.75 -2.5 27.234375 -3.929688 27.234375 -5.796875 C 27.234375 -6.859375 27.304688 -7.992188 27.453125 -9.203125 C 27.597656 -10.410156 27.910156 -11.738281 28.390625 -13.1875 L 28.4375 -13.375 C 28.726562 -14.3125 28.769531 -14.9375 28.5625 -15.25 C 28.351562 -15.570312 27.945312 -15.734375 27.34375 -15.734375 C 26.75 -15.734375 26.035156 -15.734375 25.203125 -15.734375 C 24.847656 -15.734375 24.5 -15.6875 24.15625 -15.59375 C 23.820312 -15.5 23.476562 -15.128906 23.125 -14.484375 C 23.0625 -14.359375 23 -14.222656 22.9375 -14.078125 C 22.875 -13.929688 22.804688 -13.789062 22.734375 -13.65625 C 22.453125 -12.988281 22.1875 -12.378906 21.9375 -11.828125 C 21.695312 -11.285156 21.5 -10.835938 21.34375 -10.484375 C 19.570312 -6.679688 17.421875 -3.644531 14.890625 -1.375 C 12.367188 0.894531 9.382812 2.03125 5.9375 2.03125 C 4.070312 2.03125 2.519531 1.632812 1.28125 0.84375 C 0.0390625 0.0507812 -0.878906 -0.96875 -1.484375 -2.21875 C -2.097656 -3.476562 -2.40625 -4.765625 -2.40625 -6.078125 C -2.40625 -7.398438 -2.140625 -8.664062 -1.609375 -9.875 C -1.085938 -11.082031 -0.34375 -12.0625 0.625 -12.8125 C 1.59375 -13.570312 2.71875 -13.953125 4 -13.953125 C 4.488281 -13.953125 4.734375 -13.757812 4.734375 -13.375 C 4.734375 -12.3125 5.191406 -11.445312 6.109375 -10.78125 C 7.023438 -10.125 8.144531 -9.796875 9.46875 -9.796875 C 10.59375 -9.796875 11.75 -10.078125 12.9375 -10.640625 C 14.125 -11.203125 15.25 -12.09375 16.3125 -13.3125 C 17.375 -14.539062 18.273438 -16.125 19.015625 -18.0625 C 19.597656 -19.570312 20.242188 -21.171875 20.953125 -22.859375 C 21.660156 -24.546875 22.382812 -26.328125 23.125 -28.203125 C 21.613281 -28.617188 20.207031 -28.609375 18.90625 -28.171875 C 17.601562 -27.734375 16.554688 -26.988281 15.765625 -25.9375 C 14.972656 -24.894531 14.578125 -23.6875 14.578125 -22.3125 C 14.578125 -21.632812 14.753906 -21.0625 15.109375 -20.59375 C 15.460938 -20.125 15.898438 -19.890625 16.421875 -19.890625 C 16.640625 -19.378906 16.648438 -18.757812 16.453125 -18.03125 C 16.265625 -17.3125 15.890625 -16.617188 15.328125 -15.953125 C 14.765625 -15.296875 14.039062 -14.738281 13.15625 -14.28125 C 12.269531 -13.832031 11.25 -13.609375 10.09375 -13.609375 C 8.769531 -13.609375 7.65625 -13.9375 6.75 -14.59375 C 5.851562 -15.257812 5.179688 -16.140625 4.734375 -17.234375 C 4.285156 -18.328125 4.0625 -19.488281 4.0625 -20.71875 C 4.0625 -22.769531 4.492188 -24.710938 5.359375 -26.546875 C 6.222656 -28.390625 7.457031 -30.007812 9.0625 -31.40625 C 10.675781 -32.800781 12.570312 -33.898438 14.75 -34.703125 C 16.925781 -35.515625 19.316406 -35.921875 21.921875 -35.921875 C 25.171875 -35.921875 27.285156 -35.203125 28.265625 -33.765625 C 29.242188 -32.335938 29.269531 -30.414062 28.34375 -28 C 27.664062 -25.875 26.875 -23.6875 25.96875 -21.4375 C 25.96875 -21.40625 25.953125 -21.375 25.921875 -21.34375 C 25.566406 -20.40625 25.535156 -19.804688 25.828125 -19.546875 C 26.117188 -19.296875 26.472656 -19.171875 26.890625 -19.171875 C 27.148438 -19.171875 27.503906 -19.175781 27.953125 -19.1875 C 28.398438 -19.207031 28.851562 -19.234375 29.3125 -19.265625 C 29.945312 -19.328125 30.367188 -19.554688 30.578125 -19.953125 C 30.796875 -20.359375 31.0625 -20.984375 31.375 -21.828125 C 32.476562 -24.941406 33.535156 -27.585938 34.546875 -29.765625 C 35.554688 -31.941406 36.65625 -33.59375 37.84375 -34.71875 C 39.039062 -35.84375 40.410156 -36.40625 41.953125 -36.40625 C 43.179688 -36.40625 44.171875 -36.023438 44.921875 -35.265625 C 45.679688 -34.515625 46.0625 -33.285156 46.0625 -31.578125 C 46.0625 -29.835938 45.632812 -28.023438 44.78125 -26.140625 C 43.925781 -24.253906 42.742188 -22.523438 41.234375 -20.953125 C 39.722656 -19.378906 37.96875 -18.1875 35.96875 -17.375 C 35.03125 -16.988281 34.5625 -16.15625 34.5625 -14.875 C 34.5625 -13.75 34.890625 -12.78125 35.546875 -11.96875 C 36.210938 -11.164062 37.125 -10.765625 38.28125 -10.765625 C 39.15625 -10.765625 40.019531 -10.972656 40.875 -11.390625 C 41.726562 -11.804688 42.410156 -12.421875 42.921875 -13.234375 Z M 36.546875 -24 C 36.160156 -22.769531 35.984375 -21.992188 36.015625 -21.671875 C 36.046875 -21.359375 36.175781 -21.203125 36.40625 -21.203125 C 36.882812 -21.203125 37.421875 -21.488281 38.015625 -22.0625 C 38.617188 -22.644531 39.128906 -23.328125 39.546875 -24.109375 C 39.960938 -24.898438 40.171875 -25.585938 40.171875 -26.171875 C 40.171875 -26.972656 39.832031 -27.375 39.15625 -27.375 C 38.476562 -27.375 37.945312 -27.023438 37.5625 -26.328125 C 37.175781 -25.640625 36.835938 -24.863281 36.546875 -24 Z M 36.546875 -24 "/></g></g></g><g fill="#ffa500" fill-opacity="1"><g transform="translate(102.401221, 63.249265)"><g><path d="M 5.125 0 C 3.476562 0 2.234375 -0.675781 1.390625 -2.03125 C 0.554688 -3.382812 0.140625 -5.140625 0.140625 -7.296875 C 0.140625 -8.640625 0.304688 -10.078125 0.640625 -11.609375 C 0.984375 -13.140625 1.484375 -14.644531 2.140625 -16.125 C 2.804688 -17.601562 3.632812 -18.945312 4.625 -20.15625 C 5.625 -21.363281 6.785156 -22.328125 8.109375 -23.046875 C 9.429688 -23.773438 10.925781 -24.140625 12.59375 -24.140625 C 13.5625 -24.140625 14.3125 -24.050781 14.84375 -23.875 C 15.375 -23.695312 15.773438 -23.476562 16.046875 -23.21875 C 16.328125 -22.96875 16.5625 -22.753906 16.75 -22.578125 C 16.945312 -22.398438 17.207031 -22.3125 17.53125 -22.3125 C 18.070312 -22.3125 18.507812 -22.460938 18.84375 -22.765625 C 19.1875 -23.066406 19.566406 -23.367188 19.984375 -23.671875 C 20.398438 -23.984375 20.976562 -24.140625 21.71875 -24.140625 C 22.363281 -24.140625 22.804688 -23.976562 23.046875 -23.65625 C 23.296875 -23.332031 23.421875 -22.898438 23.421875 -22.359375 C 23.421875 -21.453125 23.171875 -20.554688 22.671875 -19.671875 C 22.171875 -18.785156 21.644531 -17.632812 21.09375 -16.21875 C 20.289062 -14.445312 19.992188 -13.09375 20.203125 -12.15625 C 20.410156 -11.226562 21.046875 -10.765625 22.109375 -10.765625 C 22.953125 -10.765625 23.675781 -10.976562 24.28125 -11.40625 C 24.894531 -11.84375 25.441406 -12.453125 25.921875 -13.234375 C 26.179688 -13.617188 26.507812 -13.753906 26.90625 -13.640625 C 27.3125 -13.523438 27.648438 -13.304688 27.921875 -12.984375 C 28.203125 -12.660156 28.257812 -12.335938 28.09375 -12.015625 C 27.519531 -10.890625 26.898438 -9.644531 26.234375 -8.28125 C 25.578125 -6.914062 24.847656 -5.601562 24.046875 -4.34375 C 23.242188 -3.09375 22.328125 -2.054688 21.296875 -1.234375 C 20.265625 -0.410156 19.070312 0 17.71875 0 C 16.039062 0 14.851562 -0.675781 14.15625 -2.03125 C 13.46875 -3.382812 13.269531 -5.054688 13.5625 -7.046875 L 13.375 -7.046875 C 12.40625 -5.085938 11.210938 -3.421875 9.796875 -2.046875 C 8.378906 -0.679688 6.820312 0 5.125 0 Z M 9.953125 -10 C 10.785156 -10 11.515625 -10.238281 12.140625 -10.71875 C 12.765625 -11.195312 13.253906 -11.78125 13.609375 -12.46875 C 13.960938 -13.164062 14.140625 -13.851562 14.140625 -14.53125 C 14.140625 -15.332031 13.914062 -15.957031 13.46875 -16.40625 C 13.019531 -16.863281 12.410156 -17.09375 11.640625 -17.09375 C 10.796875 -17.09375 10.066406 -16.863281 9.453125 -16.40625 C 8.847656 -15.957031 8.375 -15.382812 8.03125 -14.6875 C 7.695312 -14 7.53125 -13.300781 7.53125 -12.59375 C 7.53125 -11.789062 7.742188 -11.15625 8.171875 -10.6875 C 8.609375 -10.226562 9.203125 -10 9.953125 -10 Z M 9.953125 -10 "/></g></g></g><g fill="#ffa500" fill-opacity="1"><g transform="translate(127.21332, 63.249265)"><g><path d="M 24.671875 -13.234375 C 24.867188 -13.515625 25.175781 -13.613281 25.59375 -13.53125 C 26.007812 -13.457031 26.367188 -13.28125 26.671875 -13 C 26.984375 -12.726562 27.039062 -12.398438 26.84375 -12.015625 C 26.394531 -11.054688 25.804688 -10.0625 25.078125 -9.03125 C 24.359375 -8 23.457031 -7.132812 22.375 -6.4375 C 21.300781 -5.75 19.972656 -5.40625 18.390625 -5.40625 L 18.109375 -5.40625 C 16.984375 -3.757812 15.671875 -2.445312 14.171875 -1.46875 C 12.671875 -0.488281 11.148438 0 9.609375 0 C 8.222656 0 7.085938 -0.414062 6.203125 -1.25 C 5.316406 -2.09375 5.035156 -3.476562 5.359375 -5.40625 C 5.453125 -5.957031 5.28125 -6.25 4.84375 -6.28125 C 4.414062 -6.3125 4.132812 -6.019531 4 -5.40625 C 3.644531 -3.632812 3.28125 -1.863281 2.90625 -0.09375 C 2.539062 1.675781 2.125 3.300781 1.65625 4.78125 C 1.195312 6.257812 0.660156 7.441406 0.046875 8.328125 C -0.566406 9.210938 -1.304688 9.65625 -2.171875 9.65625 C -3.359375 9.65625 -4.21875 9.363281 -4.75 8.78125 C -5.28125 8.207031 -5.546875 7.390625 -5.546875 6.328125 C -5.546875 4.847656 -5.070312 2.914062 -4.125 0.53125 C -3.175781 -1.851562 -2.09375 -4.617188 -0.875 -7.765625 C -0.550781 -8.609375 -0.222656 -9.488281 0.109375 -10.40625 C 0.453125 -11.320312 0.785156 -12.265625 1.109375 -13.234375 C 1.878906 -15.546875 2.519531 -17.414062 3.03125 -18.84375 C 3.550781 -20.28125 4.007812 -21.375 4.40625 -22.125 C 4.8125 -22.882812 5.222656 -23.410156 5.640625 -23.703125 C 6.066406 -23.992188 6.582031 -24.140625 7.1875 -24.140625 C 8.03125 -24.140625 8.578125 -23.976562 8.828125 -23.65625 C 9.085938 -23.332031 9.1875 -22.945312 9.125 -22.5 C 9.0625 -22.144531 9.207031 -21.910156 9.5625 -21.796875 C 9.914062 -21.679688 10.285156 -21.816406 10.671875 -22.203125 C 11.503906 -23.046875 12.316406 -23.578125 13.109375 -23.796875 C 13.898438 -24.023438 14.664062 -24.140625 15.40625 -24.140625 C 17.300781 -24.140625 18.828125 -23.488281 19.984375 -22.1875 C 21.140625 -20.882812 21.71875 -19.085938 21.71875 -16.796875 C 21.71875 -15.765625 21.640625 -14.75 21.484375 -13.75 C 21.328125 -12.757812 21.101562 -11.796875 20.8125 -10.859375 C 21.519531 -10.859375 22.191406 -11.039062 22.828125 -11.40625 C 23.472656 -11.78125 24.085938 -12.390625 24.671875 -13.234375 Z M 10.53125 -10 C 11.332031 -10 12.035156 -10.238281 12.640625 -10.71875 C 13.253906 -11.195312 13.738281 -11.78125 14.09375 -12.46875 C 14.445312 -13.164062 14.625 -13.851562 14.625 -14.53125 C 14.625 -15.238281 14.414062 -15.84375 14 -16.34375 C 13.582031 -16.84375 12.90625 -17.09375 11.96875 -17.09375 C 11.195312 -17.09375 10.515625 -16.863281 9.921875 -16.40625 C 9.328125 -15.957031 8.859375 -15.382812 8.515625 -14.6875 C 8.179688 -14 8.015625 -13.300781 8.015625 -12.59375 C 8.015625 -11.894531 8.207031 -11.285156 8.59375 -10.765625 C 8.976562 -10.253906 9.625 -10 10.53125 -10 Z M 10.53125 -10 "/></g></g></g><g fill="#ffa500" fill-opacity="1"><g transform="translate(150.770336, 63.249265)"><g><path d="M 24.671875 -13.234375 C 24.867188 -13.515625 25.175781 -13.613281 25.59375 -13.53125 C 26.007812 -13.457031 26.367188 -13.28125 26.671875 -13 C 26.984375 -12.726562 27.039062 -12.398438 26.84375 -12.015625 C 26.394531 -11.054688 25.804688 -10.0625 25.078125 -9.03125 C 24.359375 -8 23.457031 -7.132812 22.375 -6.4375 C 21.300781 -5.75 19.972656 -5.40625 18.390625 -5.40625 L 18.109375 -5.40625 C 16.984375 -3.757812 15.671875 -2.445312 14.171875 -1.46875 C 12.671875 -0.488281 11.148438 0 9.609375 0 C 8.222656 0 7.085938 -0.414062 6.203125 -1.25 C 5.316406 -2.09375 5.035156 -3.476562 5.359375 -5.40625 C 5.453125 -5.957031 5.28125 -6.25 4.84375 -6.28125 C 4.414062 -6.3125 4.132812 -6.019531 4 -5.40625 C 3.644531 -3.632812 3.28125 -1.863281 2.90625 -0.09375 C 2.539062 1.675781 2.125 3.300781 1.65625 4.78125 C 1.195312 6.257812 0.660156 7.441406 0.046875 8.328125 C -0.566406 9.210938 -1.304688 9.65625 -2.171875 9.65625 C -3.359375 9.65625 -4.21875 9.363281 -4.75 8.78125 C -5.28125 8.207031 -5.546875 7.390625 -5.546875 6.328125 C -5.546875 4.847656 -5.070312 2.914062 -4.125 0.53125 C -3.175781 -1.851562 -2.09375 -4.617188 -0.875 -7.765625 C -0.550781 -8.609375 -0.222656 -9.488281 0.109375 -10.40625 C 0.453125 -11.320312 0.785156 -12.265625 1.109375 -13.234375 C 1.878906 -15.546875 2.519531 -17.414062 3.03125 -18.84375 C 3.550781 -20.28125 4.007812 -21.375 4.40625 -22.125 C 4.8125 -22.882812 5.222656 -23.410156 5.640625 -23.703125 C 6.066406 -23.992188 6.582031 -24.140625 7.1875 -24.140625 C 8.03125 -24.140625 8.578125 -23.976562 8.828125 -23.65625 C 9.085938 -23.332031 9.1875 -22.945312 9.125 -22.5 C 9.0625 -22.144531 9.207031 -21.910156 9.5625 -21.796875 C 9.914062 -21.679688 10.285156 -21.816406 10.671875 -22.203125 C 11.503906 -23.046875 12.316406 -23.578125 13.109375 -23.796875 C 13.898438 -24.023438 14.664062 -24.140625 15.40625 -24.140625 C 17.300781 -24.140625 18.828125 -23.488281 19.984375 -22.1875 C 21.140625 -20.882812 21.71875 -19.085938 21.71875 -16.796875 C 21.71875 -15.765625 21.640625 -14.75 21.484375 -13.75 C 21.328125 -12.757812 21.101562 -11.796875 20.8125 -10.859375 C 21.519531 -10.859375 22.191406 -11.039062 22.828125 -11.40625 C 23.472656 -11.78125 24.085938 -12.390625 24.671875 -13.234375 Z M 10.53125 -10 C 11.332031 -10 12.035156 -10.238281 12.640625 -10.71875 C 13.253906 -11.195312 13.738281 -11.78125 14.09375 -12.46875 C 14.445312 -13.164062 14.625 -13.851562 14.625 -14.53125 C 14.625 -15.238281 14.414062 -15.84375 14 -16.34375 C 13.582031 -16.84375 12.90625 -17.09375 11.96875 -17.09375 C 11.195312 -17.09375 10.515625 -16.863281 9.921875 -16.40625 C 9.328125 -15.957031 8.859375 -15.382812 8.515625 -14.6875 C 8.179688 -14 8.015625 -13.300781 8.015625 -12.59375 C 8.015625 -11.894531 8.207031 -11.285156 8.59375 -10.765625 C 8.976562 -10.253906 9.625 -10 10.53125 -10 Z M 10.53125 -10 "/></g></g></g><g fill="#ffa500" fill-opacity="1"><g transform="translate(174.327353, 63.249265)"><g><path d="M 9.078125 0 C 7.148438 0 5.566406 -0.429688 4.328125 -1.296875 C 3.085938 -2.171875 2.164062 -3.320312 1.5625 -4.75 C 0.96875 -6.1875 0.675781 -7.765625 0.6875 -9.484375 C 0.707031 -11.203125 1.007812 -12.921875 1.59375 -14.640625 C 2.175781 -16.367188 3.015625 -17.945312 4.109375 -19.375 C 5.203125 -20.8125 6.523438 -21.960938 8.078125 -22.828125 C 9.640625 -23.703125 11.40625 -24.140625 13.375 -24.140625 C 14.882812 -24.140625 16.113281 -23.859375 17.0625 -23.296875 C 18.007812 -22.734375 18.707031 -21.984375 19.15625 -21.046875 C 19.613281 -20.117188 19.84375 -19.125 19.84375 -18.0625 C 19.84375 -16.894531 19.519531 -15.734375 18.875 -14.578125 C 18.226562 -13.421875 17.328125 -12.460938 16.171875 -11.703125 C 15.015625 -10.953125 13.644531 -10.578125 12.0625 -10.578125 C 11.394531 -10.578125 10.738281 -10.625 10.09375 -10.71875 C 9.445312 -10.8125 8.847656 -11.019531 8.296875 -11.34375 C 8.140625 -11.4375 7.960938 -11.441406 7.765625 -11.359375 C 7.578125 -11.285156 7.484375 -11.085938 7.484375 -10.765625 C 7.484375 -9.929688 7.972656 -9.296875 8.953125 -8.859375 C 9.929688 -8.421875 11.113281 -8.203125 12.5 -8.203125 C 14.144531 -8.203125 15.84375 -8.617188 17.59375 -9.453125 C 19.351562 -10.296875 20.78125 -11.554688 21.875 -13.234375 C 22.125 -13.617188 22.457031 -13.753906 22.875 -13.640625 C 23.300781 -13.523438 23.648438 -13.304688 23.921875 -12.984375 C 24.191406 -12.660156 24.234375 -12.335938 24.046875 -12.015625 C 21.921875 -8.085938 19.59375 -5.101562 17.0625 -3.0625 C 14.539062 -1.019531 11.878906 0 9.078125 0 Z M 10.8125 -14.1875 C 11.75 -14.1875 12.484375 -14.484375 13.015625 -15.078125 C 13.546875 -15.679688 13.8125 -16.285156 13.8125 -16.890625 C 13.8125 -17.441406 13.625 -17.910156 13.25 -18.296875 C 12.882812 -18.679688 12.332031 -18.875 11.59375 -18.875 C 10.65625 -18.875 9.910156 -18.582031 9.359375 -18 C 8.816406 -17.425781 8.546875 -16.816406 8.546875 -16.171875 C 8.546875 -15.660156 8.726562 -15.203125 9.09375 -14.796875 C 9.46875 -14.390625 10.039062 -14.1875 10.8125 -14.1875 Z M 10.8125 -14.1875 "/></g></g></g><g fill="#ffa500" fill-opacity="1"><g transform="translate(195.084554, 63.249265)"><g><path d="M 3.046875 0 C 1.921875 0 1.050781 -0.335938 0.4375 -1.015625 C -0.175781 -1.691406 -0.484375 -2.53125 -0.484375 -3.53125 C -0.484375 -4.65625 -0.351562 -6.0625 -0.09375 -7.75 C 0.164062 -9.4375 0.566406 -11.265625 1.109375 -13.234375 C 1.660156 -15.128906 2.265625 -16.90625 2.921875 -18.5625 C 3.578125 -20.21875 4.25 -21.5625 4.9375 -22.59375 C 5.632812 -23.625 6.289062 -24.140625 6.90625 -24.140625 C 7.550781 -24.140625 7.976562 -23.953125 8.1875 -23.578125 C 8.394531 -23.210938 8.5 -22.789062 8.5 -22.3125 C 8.5 -21.375 8.722656 -20.789062 9.171875 -20.5625 C 9.617188 -20.34375 10.234375 -20.617188 11.015625 -21.390625 C 11.910156 -22.253906 12.835938 -22.925781 13.796875 -23.40625 C 14.765625 -23.894531 15.78125 -24.140625 16.84375 -24.140625 C 18.332031 -24.140625 19.429688 -23.703125 20.140625 -22.828125 C 20.847656 -21.960938 21.203125 -20.921875 21.203125 -19.703125 C 21.203125 -18.859375 21.070312 -18.09375 20.8125 -17.40625 C 20.550781 -16.71875 20.289062 -16.039062 20.03125 -15.375 C 19.78125 -14.71875 19.65625 -13.988281 19.65625 -13.1875 C 19.65625 -11.570312 20.425781 -10.765625 21.96875 -10.765625 C 22.707031 -10.765625 23.328125 -11 23.828125 -11.46875 C 24.328125 -11.9375 24.816406 -12.523438 25.296875 -13.234375 C 25.554688 -13.617188 25.894531 -13.753906 26.3125 -13.640625 C 26.726562 -13.523438 27.070312 -13.304688 27.34375 -12.984375 C 27.625 -12.660156 27.664062 -12.335938 27.46875 -12.015625 C 27.144531 -11.503906 26.757812 -10.753906 26.3125 -9.765625 C 25.863281 -8.785156 25.320312 -7.738281 24.6875 -6.625 C 24.0625 -5.519531 23.332031 -4.460938 22.5 -3.453125 C 21.664062 -2.441406 20.722656 -1.613281 19.671875 -0.96875 C 18.628906 -0.320312 17.445312 0 16.125 0 C 14.613281 0 13.550781 -0.5 12.9375 -1.5 C 12.320312 -2.5 12.015625 -3.671875 12.015625 -5.015625 C 12.015625 -6.242188 12.179688 -7.410156 12.515625 -8.515625 C 12.859375 -9.628906 13.195312 -10.644531 13.53125 -11.5625 C 13.875 -12.476562 14.046875 -13.257812 14.046875 -13.90625 C 14.046875 -14.445312 13.875 -14.863281 13.53125 -15.15625 C 13.195312 -15.445312 12.757812 -15.59375 12.21875 -15.59375 C 11.28125 -15.59375 10.414062 -15.195312 9.625 -14.40625 C 8.84375 -13.625 8.207031 -12.601562 7.71875 -11.34375 C 7.238281 -10.09375 7 -8.742188 7 -7.296875 L 7 -5.125 C 7 -4.3125 6.898438 -3.507812 6.703125 -2.71875 C 6.515625 -1.9375 6.140625 -1.285156 5.578125 -0.765625 C 5.015625 -0.253906 4.171875 0 3.046875 0 Z M 3.046875 0 "/></g></g></g><g fill="#ffa500" fill-opacity="1"><g transform="translate(219.269112, 63.249265)"><g><path d="M 9.703125 -26.125 C 8.546875 -26.125 7.546875 -26.367188 6.703125 -26.859375 C 5.867188 -27.359375 5.453125 -28.253906 5.453125 -29.546875 C 5.453125 -31.253906 5.925781 -32.421875 6.875 -33.046875 C 7.820312 -33.671875 8.957031 -33.984375 10.28125 -33.984375 C 11.507812 -33.984375 12.546875 -33.707031 13.390625 -33.15625 C 14.242188 -32.613281 14.609375 -31.585938 14.484375 -30.078125 C 14.359375 -28.597656 13.84375 -27.566406 12.9375 -26.984375 C 12.039062 -26.410156 10.960938 -26.125 9.703125 -26.125 Z M 4.34375 0 C 2.738281 0 1.597656 -0.585938 0.921875 -1.765625 C 0.242188 -2.941406 -0.09375 -4.363281 -0.09375 -6.03125 C -0.09375 -7.15625 0.015625 -8.34375 0.234375 -9.59375 C 0.460938 -10.851562 0.753906 -12.066406 1.109375 -13.234375 C 2.234375 -16.734375 3.328125 -19.425781 4.390625 -21.3125 C 5.453125 -23.195312 6.675781 -24.140625 8.0625 -24.140625 C 9.15625 -24.140625 9.703125 -23.414062 9.703125 -21.96875 C 9.703125 -21 9.515625 -20.007812 9.140625 -19 C 8.773438 -17.988281 8.414062 -16.988281 8.0625 -16 C 7.707031 -15.019531 7.53125 -14.097656 7.53125 -13.234375 C 7.53125 -12.421875 7.726562 -11.8125 8.125 -11.40625 C 8.53125 -11.007812 9.054688 -10.8125 9.703125 -10.8125 C 10.441406 -10.8125 11.0625 -11.035156 11.5625 -11.484375 C 12.0625 -11.941406 12.550781 -12.523438 13.03125 -13.234375 C 13.289062 -13.617188 13.617188 -13.757812 14.015625 -13.65625 C 14.421875 -13.5625 14.757812 -13.34375 15.03125 -13 C 15.3125 -12.664062 15.367188 -12.351562 15.203125 -12.0625 C 14.878906 -11.550781 14.5 -10.8125 14.0625 -9.84375 C 13.632812 -8.882812 13.113281 -7.835938 12.5 -6.703125 C 11.894531 -5.578125 11.195312 -4.507812 10.40625 -3.5 C 9.613281 -2.488281 8.71875 -1.648438 7.71875 -0.984375 C 6.726562 -0.328125 5.601562 0 4.34375 0 Z M 4.34375 0 "/></g></g></g><g fill="#ffa500" fill-opacity="1"><g transform="translate(231.144163, 63.249265)"><g><path d="M 3.046875 0 C 1.921875 0 1.050781 -0.335938 0.4375 -1.015625 C -0.175781 -1.691406 -0.484375 -2.53125 -0.484375 -3.53125 C -0.484375 -4.65625 -0.351562 -6.0625 -0.09375 -7.75 C 0.164062 -9.4375 0.566406 -11.265625 1.109375 -13.234375 C 1.660156 -15.128906 2.265625 -16.90625 2.921875 -18.5625 C 3.578125 -20.21875 4.25 -21.5625 4.9375 -22.59375 C 5.632812 -23.625 6.289062 -24.140625 6.90625 -24.140625 C 7.550781 -24.140625 7.976562 -23.953125 8.1875 -23.578125 C 8.394531 -23.210938 8.5 -22.789062 8.5 -22.3125 C 8.5 -21.375 8.722656 -20.789062 9.171875 -20.5625 C 9.617188 -20.34375 10.234375 -20.617188 11.015625 -21.390625 C 11.910156 -22.253906 12.835938 -22.925781 13.796875 -23.40625 C 14.765625 -23.894531 15.78125 -24.140625 16.84375 -24.140625 C 18.332031 -24.140625 19.429688 -23.703125 20.140625 -22.828125 C 20.847656 -21.960938 21.203125 -20.921875 21.203125 -19.703125 C 21.203125 -18.859375 21.070312 -18.09375 20.8125 -17.40625 C 20.550781 -16.71875 20.289062 -16.039062 20.03125 -15.375 C 19.78125 -14.71875 19.65625 -13.988281 19.65625 -13.1875 C 19.65625 -11.570312 20.425781 -10.765625 21.96875 -10.765625 C 22.707031 -10.765625 23.328125 -11 23.828125 -11.46875 C 24.328125 -11.9375 24.816406 -12.523438 25.296875 -13.234375 C 25.554688 -13.617188 25.894531 -13.753906 26.3125 -13.640625 C 26.726562 -13.523438 27.070312 -13.304688 27.34375 -12.984375 C 27.625 -12.660156 27.664062 -12.335938 27.46875 -12.015625 C 27.144531 -11.503906 26.757812 -10.753906 26.3125 -9.765625 C 25.863281 -8.785156 25.320312 -7.738281 24.6875 -6.625 C 24.0625 -5.519531 23.332031 -4.460938 22.5 -3.453125 C 21.664062 -2.441406 20.722656 -1.613281 19.671875 -0.96875 C 18.628906 -0.320312 17.445312 0 16.125 0 C 14.613281 0 13.550781 -0.5 12.9375 -1.5 C 12.320312 -2.5 12.015625 -3.671875 12.015625 -5.015625 C 12.015625 -6.242188 12.179688 -7.410156 12.515625 -8.515625 C 12.859375 -9.628906 13.195312 -10.644531 13.53125 -11.5625 C 13.875 -12.476562 14.046875 -13.257812 14.046875 -13.90625 C 14.046875 -14.445312 13.875 -14.863281 13.53125 -15.15625 C 13.195312 -15.445312 12.757812 -15.59375 12.21875 -15.59375 C 11.28125 -15.59375 10.414062 -15.195312 9.625 -14.40625 C 8.84375 -13.625 8.207031 -12.601562 7.71875 -11.34375 C 7.238281 -10.09375 7 -8.742188 7 -7.296875 L 7 -5.125 C 7 -4.3125 6.898438 -3.507812 6.703125 -2.71875 C 6.515625 -1.9375 6.140625 -1.285156 5.578125 -0.765625 C 5.015625 -0.253906 4.171875 0 3.046875 0 Z M 3.046875 0 "/></g></g></g><g fill="#ffa500" fill-opacity="1"><g transform="translate(255.32872, 63.249265)"><g><path d="M 25.5 -13.234375 C 25.6875 -13.515625 25.988281 -13.613281 26.40625 -13.53125 C 26.820312 -13.457031 27.179688 -13.28125 27.484375 -13 C 27.796875 -12.726562 27.859375 -12.398438 27.671875 -12.015625 C 26.960938 -10.535156 26.273438 -9.085938 25.609375 -7.671875 C 24.953125 -6.253906 24.253906 -4.96875 23.515625 -3.8125 C 22.773438 -2.65625 21.953125 -1.726562 21.046875 -1.03125 C 20.148438 -0.34375 19.117188 0 17.953125 0 C 17.242188 0 16.679688 -0.351562 16.265625 -1.0625 C 15.234375 2.25 14.128906 4.898438 12.953125 6.890625 C 11.785156 8.890625 10.476562 10.335938 9.03125 11.234375 C 7.582031 12.140625 5.941406 12.59375 4.109375 12.59375 C 1.566406 12.59375 -0.398438 11.925781 -1.796875 10.59375 C -3.203125 9.257812 -3.90625 7.4375 -3.90625 5.125 C -3.90625 3.894531 -3.726562 2.835938 -3.375 1.953125 C -3.019531 1.066406 -2.617188 0.367188 -2.171875 -0.140625 C -1.722656 -0.660156 -1.320312 -0.992188 -0.96875 -1.140625 C -0.613281 -1.285156 -0.421875 -1.226562 -0.390625 -0.96875 C -0.253906 0.226562 0.285156 1.195312 1.234375 1.9375 C 2.179688 2.675781 3.457031 3.0625 5.0625 3.09375 C 6.195312 3.09375 7.257812 2.816406 8.25 2.265625 C 9.25 1.722656 10.144531 1.007812 10.9375 0.125 C 11.726562 -0.757812 12.347656 -1.734375 12.796875 -2.796875 C 13.242188 -3.859375 13.46875 -4.921875 13.46875 -5.984375 C 13.46875 -6.398438 13.304688 -6.597656 12.984375 -6.578125 C 12.660156 -6.566406 12.390625 -6.320312 12.171875 -5.84375 C 11.523438 -4.164062 10.582031 -2.84375 9.34375 -1.875 C 8.101562 -0.914062 6.875 -0.4375 5.65625 -0.4375 C 3.976562 -0.4375 2.640625 -1.054688 1.640625 -2.296875 C 0.640625 -3.535156 0.140625 -5.054688 0.140625 -6.859375 C 0.140625 -8.660156 0.394531 -10.554688 0.90625 -12.546875 C 1.425781 -14.546875 2.207031 -16.421875 3.25 -18.171875 C 4.300781 -19.929688 5.609375 -21.363281 7.171875 -22.46875 C 8.734375 -23.582031 10.539062 -24.140625 12.59375 -24.140625 C 13.5625 -24.140625 14.3125 -24.050781 14.84375 -23.875 C 15.375 -23.695312 15.773438 -23.476562 16.046875 -23.21875 C 16.328125 -22.96875 16.5625 -22.753906 16.75 -22.578125 C 16.945312 -22.398438 17.207031 -22.3125 17.53125 -22.3125 C 18.070312 -22.3125 18.507812 -22.460938 18.84375 -22.765625 C 19.1875 -23.066406 19.566406 -23.367188 19.984375 -23.671875 C 20.398438 -23.984375 20.976562 -24.140625 21.71875 -24.140625 C 22.363281 -24.140625 22.804688 -23.976562 23.046875 -23.65625 C 23.296875 -23.332031 23.421875 -22.898438 23.421875 -22.359375 C 23.421875 -21.773438 23.234375 -21.085938 22.859375 -20.296875 C 22.492188 -19.515625 22.007812 -18.503906 21.40625 -17.265625 C 20.8125 -16.023438 20.175781 -14.421875 19.5 -12.453125 C 19.175781 -11.171875 19.175781 -10.28125 19.5 -9.78125 C 19.820312 -9.28125 20.257812 -9.03125 20.8125 -9.03125 C 21.550781 -9.03125 22.335938 -9.476562 23.171875 -10.375 C 24.015625 -11.28125 24.789062 -12.234375 25.5 -13.234375 Z M 10.046875 -10 C 10.847656 -10 11.550781 -10.238281 12.15625 -10.71875 C 12.769531 -11.195312 13.253906 -11.78125 13.609375 -12.46875 C 13.960938 -13.164062 14.140625 -13.851562 14.140625 -14.53125 C 14.140625 -15.238281 13.929688 -15.84375 13.515625 -16.34375 C 13.097656 -16.84375 12.421875 -17.09375 11.484375 -17.09375 C 10.710938 -17.09375 10.03125 -16.863281 9.4375 -16.40625 C 8.84375 -15.957031 8.375 -15.382812 8.03125 -14.6875 C 7.695312 -14 7.53125 -13.300781 7.53125 -12.59375 C 7.53125 -11.894531 7.722656 -11.285156 8.109375 -10.765625 C 8.492188 -10.253906 9.140625 -10 10.046875 -10 Z M 10.046875 -10 "/></g></g></g></svg>